# xmcd
#
# Track frame offsets:
#	150
#	19214
#	43919
#	76590
#	93709
#	118244
#	140994
#	164821
#	196577
#	217706
#	238862
#	265031
#	284987
#
# Disc length: 4196 seconds
#
# Revision: 0
# Processed by: cddbd v1.5.2PL0 Copyright (c) Steve Scherf et al.
# Submitted via: dBpowerAMP V4.0
#
DISCID=c610620d
DTITLE=Mountain Men - Spring time Comming
DYEAR=1900
DGENRE=Blues
TTITLE0=Time is coming
TTITLE1=Blues before my time
TTITLE2=Golden age
TTITLE3=my anger
TTITLE4=hang me
TTITLE5=I make you lose
TTITLE6=Old home place
TTITLE7=Steady rollin'man
TTITLE8=She shines
TTITLE9=Hellhole
TTITLE10=She Loves me so much
TTITLE11=Rabbit
TTITLE12=Les Marquises
EXTD=A French Blues group
EXTT0=
EXTT1=
EXTT2=
EXTT3=
EXTT4=
EXTT5=
EXTT6=
EXTT7=
EXTT8=
EXTT9=
EXTT10=
EXTT11=
EXTT12=
PLAYORDER=
